<?xml version="1.0" standalone="no"?>
<!DOCTYPE svg PUBLIC "-//W3C//DTD SVG 20010904//EN"
 "http://www.w3.org/TR/2001/REC-SVG-20010904/DTD/svg10.dtd">
<svg version="1.0" xmlns="http://www.w3.org/2000/svg"
 width="260.000000pt" height="260.000000pt" viewBox="0 0 260.000000 260.000000"
 preserveAspectRatio="xMidYMid meet">
<metadata>
Created by potrace 1.14, written by Peter Selinger 2001-2017
</metadata>
<g transform="translate(0.000000,260.000000) scale(0.100000,-0.100000)"
fill="#000000" stroke="none">
<path d="M0 1300 l0 -1300 1300 0 1300 0 0 1300 0 1300 -1300 0 -1300 0 0
-1300z m826 765 c178 -31 293 -85 393 -185 79 -78 132 -176 162 -299 19 -73
21 -104 16 -235 -4 -114 -10 -169 -27 -226 -56 -194 -171 -336 -333 -414 -148
-71 -229 -88 -460 -93 -108 -3 -235 -2 -282 2 l-85 7 0 713 0 714 34 6 c142
27 453 32 582 10z m1604 -75 l0 -80 -300 0 -300 0 0 -225 0 -225 283 -2 282
-3 3 -77 3 -78 -286 0 -285 0 0 -260 0 -260 315 0 315 0 0 -80 0 -80 -410 0
-410 0 0 725 0 725 395 0 395 0 0 -80z"/>
<path d="M475 1924 c-16 -3 -40 -7 -52 -9 l-23 -5 0 -570 0 -569 47 -7 c70
-10 290 3 358 21 193 53 325 187 376 382 26 100 28 299 4 387 -48 178 -171
302 -350 351 -59 16 -295 28 -360 19z"/>
</g>
</svg>
